<?xml version="1.0" standalone="no"?>
<!DOCTYPE svg PUBLIC "-//W3C//DTD SVG 20010904//EN"
 "http://www.w3.org/TR/2001/REC-SVG-20010904/DTD/svg10.dtd">
<svg version="1.0" xmlns="http://www.w3.org/2000/svg"
 width="300.000000pt" height="300.000000pt" viewBox="0 0 300.000000 300.000000"
 preserveAspectRatio="xMidYMid meet">
<metadata>
Created by potrace 1.11, written by Peter Selinger 2001-2013
</metadata>
<g transform="translate(0.000000,300.000000) scale(0.100000,-0.100000)"
fill="#000000" stroke="none">
<path d="M1530 2903 c-88 -51 -206 -171 -260 -263 -103 -175 -129 -322 -111
-628 8 -139 9 -231 2 -312 -10 -108 -33 -215 -50 -233 -5 -4 -11 23 -15 60
-18 176 -91 334 -212 458 -55 57 -122 110 -129 103 -3 -3 -1 -29 5 -58 15 -77
12 -272 -5 -369 -8 -46 -35 -151 -61 -234 -84 -274 -103 -409 -84 -571 38
-322 224 -581 512 -715 114 -54 163 -63 73 -14 -232 126 -342 385 -275 649 25
99 127 308 215 439 94 141 83 134 151 91 32 -19 59 -34 60 -33 2 1 8 54 14
117 6 63 22 167 35 230 29 138 95 370 106 370 4 0 11 -15 14 -32 9 -42 67
-159 102 -206 15 -21 68 -83 118 -140 161 -184 185 -213 229 -276 130 -183
194 -402 183 -626 -14 -264 -149 -479 -372 -592 -97 -49 -53 -44 68 7 113 48
180 91 264 169 163 152 256 335 283 560 18 149 1 306 -65 626 -57 275 -67 354
-62 475 5 97 16 154 42 219 7 17 5 18 -21 12 -78 -19 -205 -125 -276 -229 -22
-32 -56 -92 -75 -133 l-36 -75 -28 33 c-93 108 -200 300 -249 446 -65 194 -78
451 -32 635 11 42 16 77 13 77 -4 0 -36 -17 -71 -37z"/>
</g>
</svg>
